<svg id="Слой_1" data-name="Слой 1" xmlns="http://www.w3.org/2000/svg" viewBox="0 0 1300 799"><path d="M17.09,793.52H0V723.43H9.4q39.3,0,55.56-18.8t16.24-64.1V185h81.19V635.4q0,80.33-34.19,119.23T17.09,793.52ZM121.37,125.14q-23.09,0-39.75-16.67T65,67.87Q65,44.8,81.62,28.13t39.75-16.67q23.91,0,40.16,16.67a55,55,0,0,1,16.25,39.74q0,23.94-16.25,40.6T121.37,125.14Z"/><path d="M609,236.68q63.66,62.82,63.68,159.4T609,555.48Q545.29,618.32,445.3,618.3T281.62,555.48q-63.69-62.82-63.68-159.4t63.68-159.4q63.66-62.82,163.68-62.82T609,236.68ZM340.17,502.06q40.15,41,105.13,41t105.12-41q40.17-41,40.18-106t-40.18-106q-40.18-41-105.12-41t-105.13,41q-40.18,41-40.17,106T340.17,502.06Z"/><path d="M810.26,607.19h-81.2V.35h81.2Z"/><path d="M1091.45,538.82q58.11,0,92.74-35.9t34.61-101.71V185H1300V592.66q0,104.28-58.12,155.13t-152.14,50.86q-76.08,0-130.77-35.9T886.32,657.62h81.2q29.06,70.07,122.22,70.09,129,0,129.06-133.34V537.11h-1.71q-41.88,77.77-139.32,77.77-84.61,0-139.74-54.27T882.9,401.21V185h81.2V401.21q0,67.53,34.19,102.56T1091.45,538.82Z"/></svg>